<?xml version="1.0" encoding="UTF-8" standalone="no"?><!DOCTYPE svg PUBLIC "-//W3C//DTD SVG 1.1//EN" "http://www.w3.org/Graphics/SVG/1.1/DTD/svg11.dtd"><svg width="100%" height="100%" viewBox="0 0 646 650" version="1.1" xmlns="http://www.w3.org/2000/svg" xmlns:xlink="http://www.w3.org/1999/xlink" xml:space="preserve" xmlns:serif="http://www.serif.com/" style="fill-rule:evenodd;clip-rule:evenodd;stroke-linejoin:round;stroke-miterlimit:2;"><g id="Logo"><path d="M645.001,312.843c-0.503,-1.296 -0.893,-2.238 -1.663,-3.118c-29.17,-33.304 -69.206,-56.856 -114.55,-65.098c-1.07,-0.194 -2.142,-0.38 -3.217,-0.557c-5.408,-0.892 -10.889,-1.566 -16.433,-2.014c-5.373,-0.434 -10.806,-0.655 -16.29,-0.655c-37.509,-0 -72.621,10.348 -102.633,28.343c-18.111,10.859 -34.366,24.504 -48.17,40.339c20.506,-1.269 45.258,14.702 50.237,36.144c8.354,35.986 -5.655,77.687 -53.422,102.788c-33.559,17.634 -80.884,22.018 -111.659,22.018c-35.731,-0 -88.087,-11.474 -122.32,-25.237c-37.678,-15.147 -70.066,-35.393 -103.746,-65.648c24.121,140.804 138.955,250.799 282.113,267.598c12.342,1.448 24.895,2.204 37.619,2.227c0.198,-0 0.396,-0 0.595,-0c37.984,-0.069 74.448,-6.667 108.329,-18.732c51.353,-18.287 96.77,-49.134 132.547,-88.834c51.913,-57.607 83.529,-133.858 83.529,-217.434c-0,-2.635 -0.081,-5.072 -0.143,-7.692c-0.038,-1.571 -0.256,-3.233 -0.723,-4.438Z" style="fill:url(#_Linear1);"/><path d="M263.627,644.833c6.476,1.165 107.017,-18.728 151.537,-113.574c47.644,-101.5 -15.411,-202.446 -34.98,-206.273c4.29,4.47 16.113,17.786 14.631,42.886c-1.383,23.44 -10.943,57.768 -55.955,81.143c-33.644,17.471 -80.884,22.018 -111.659,22.018c-35.731,-0 -88.087,-11.474 -122.32,-25.237c-37.678,-15.147 -70.066,-35.393 -103.746,-65.648c23.009,134.31 128.556,240.587 262.492,264.685Z" style="fill:#2c2aa4;fill-opacity:0.53;"/><path d="M270.26,389.061c-3.192,-2.506 -6.072,-5.391 -8.572,-8.588c-1.561,-1.732 -2.884,-3.684 -3.917,-5.802c-9.122,-15.789 -8.202,-41.959 -4.733,-59.139c22.487,-111.37 130.285,-140.574 164.492,-148.685c75.451,-17.89 166.759,7.949 216.107,69.578c-8.825,-31.191 -22.533,-61.109 -40.441,-88.132c-29.619,-44.693 -70.914,-83.925 -117.874,-110.023c-77.714,-43.191 -174.93,-49.223 -258.681,-21.134c-37.217,12.482 -72.027,31.926 -102.277,56.926c-30.287,25.03 -55.95,55.593 -75.425,89.716c-18.184,31.86 -31.15,66.754 -37.804,102.826c-1.25,6.778 -2.109,15.379 1,21.53c3.829,7.576 12.865,16.119 21.976,23.931c67.392,57.781 157.109,86.32 246.149,76.996Z" style="fill:url(#_Linear2);"/><path d="M645.867,318.834c-54.994,-66.007 -155.437,-91.383 -234.919,-58.339c-26.855,11.164 -49.247,29.086 -68.876,50.429c-18.376,22.993 -24.936,59.45 -53.423,73.297c-16.903,8.216 -35.928,7.603 -54.209,7.255c-5.873,-0.112 -11.704,-1.161 -17.578,-1.248c-3.558,-0.053 -8.9,-0.703 -14.816,-1.295c-5.824,-0.583 -12.206,-1.099 -17.622,-2.475c-3.676,-0.934 -6.756,-0.392 -6.545,-1.984c3.031,-22.883 11.565,-98.673 85.749,-163.198c76.92,-66.904 159.439,-74.118 252.369,-57.874c28.084,4.909 55.153,18.225 78.184,34.686c13.282,9.494 32.223,22.17 39.456,38.267c4.956,11.029 6.252,23.06 7.796,34.853c3.108,23.724 2.863,23.577 4.434,47.626Z" style="fill:url(#_Linear3);"/></g><defs><linearGradient id="_Linear1" x1="0" y1="0" x2="1" y2="0" gradientUnits="userSpaceOnUse" gradientTransform="matrix(219.562,-193.911,-193.911,-219.562,371.93,518.897)"><stop offset="0" style="stop-color:#637cd9;stop-opacity:1"/><stop offset="1" style="stop-color:#2a28a2;stop-opacity:1"/></linearGradient><linearGradient id="_Linear2" x1="0" y1="0" x2="1" y2="0" gradientUnits="userSpaceOnUse" gradientTransform="matrix(335.603,82.8655,82.8655,-335.603,166.037,158.535)"><stop offset="0" style="stop-color:#a07cdf;stop-opacity:1"/><stop offset="1" style="stop-color:#2c2aa4;stop-opacity:1"/></linearGradient><linearGradient id="_Linear3" x1="0" y1="0" x2="1" y2="0" gradientUnits="userSpaceOnUse" gradientTransform="matrix(313.112,3.58719e-14,3.83452e-14,-292.916,285.828,275.1)"><stop offset="0" style="stop-color:#a07cdf;stop-opacity:1"/><stop offset="1" style="stop-color:#2c2aa4;stop-opacity:1"/></linearGradient></defs></svg>