<?xml version="1.0" encoding="UTF-8" standalone="no"?>
<!DOCTYPE svg PUBLIC "-//W3C//DTD SVG 1.1//EN" "http://www.w3.org/Graphics/SVG/1.1/DTD/svg11.dtd">
<svg width="100%" height="100%" viewBox="0 0 281 70" version="1.1" xmlns="http://www.w3.org/2000/svg" xmlns:xlink="http://www.w3.org/1999/xlink" xml:space="preserve" xmlns:serif="http://www.serif.com/" style="fill-rule:evenodd;clip-rule:evenodd;stroke-linejoin:round;stroke-miterlimit:2;">
    <g transform="matrix(1,0,0,1,0,-105.5)">
        <path d="M280.5,139.4C280.455,139.284 280.42,139.199 280.351,139.12C277.729,136.128 274.132,134.011 270.057,133.271C269.961,133.253 269.865,133.237 269.768,133.221C269.282,133.141 268.79,133.08 268.292,133.04C267.809,133.001 267.321,132.981 266.828,132.981C263.458,132.981 260.303,133.911 257.606,135.528C255.978,136.503 254.518,137.729 253.277,139.152C255.12,139.038 257.344,140.473 257.791,142.4C258.542,145.634 257.283,149.381 252.991,151.636C249.976,153.221 245.723,153.615 242.958,153.615C239.747,153.615 235.043,152.584 231.967,151.347C228.581,149.986 225.671,148.167 222.644,145.448C224.812,158.1 235.13,167.984 247.994,169.494C249.103,169.624 250.231,169.692 251.374,169.694L251.428,169.694C254.841,169.688 258.117,169.095 261.162,168.011C265.776,166.367 269.857,163.596 273.072,160.028C277.737,154.852 280.578,148 280.578,140.49C280.578,140.254 280.571,140.035 280.565,139.799C280.562,139.658 280.542,139.509 280.5,139.4Z" style="fill:url(#_Linear1);"/>
    </g>
    <g transform="matrix(1,0,0,1,0,-105.5)">
        <path d="M246.23,169.232C246.812,169.337 255.846,167.549 259.847,159.026C264.128,149.906 258.462,140.835 256.703,140.492C257.089,140.893 258.151,142.09 258.018,144.345C257.894,146.451 257.035,149.536 252.99,151.636C249.967,153.206 245.722,153.615 242.957,153.615C239.746,153.615 235.042,152.584 231.966,151.347C228.58,149.986 225.67,148.167 222.643,145.448C224.711,157.517 234.195,167.067 246.23,169.232Z" style="fill:rgb(44,42,164);fill-opacity:0.53;"/>
    </g>
    <g transform="matrix(1,0,0,1,0,-105.5)">
        <path d="M246.827,146.249C246.541,146.024 246.282,145.765 246.057,145.478C245.917,145.322 245.798,145.147 245.705,144.956C244.886,143.537 244.968,141.186 245.28,139.642C247.301,129.635 256.987,127.011 260.061,126.282C266.84,124.674 275.045,126.996 279.479,132.534C278.686,129.731 277.455,127.043 275.845,124.615C273.184,120.599 269.473,117.073 265.254,114.728C258.27,110.847 249.535,110.305 242.009,112.829C238.665,113.951 235.537,115.698 232.819,117.944C230.098,120.194 227.792,122.94 226.042,126.006C224.408,128.869 223.243,132.004 222.645,135.246C222.532,135.855 222.455,136.628 222.735,137.18C223.079,137.861 223.891,138.629 224.709,139.331C230.765,144.523 238.827,147.087 246.827,146.249Z" style="fill:url(#_Linear2);"/>
    </g>
    <g transform="matrix(1,0,0,1,0,-105.5)">
        <path d="M280.578,139.939C275.636,134.008 266.611,131.727 259.469,134.697C257.055,135.7 255.043,137.31 253.28,139.228C251.628,141.294 251.039,144.57 248.479,145.814C246.96,146.553 245.251,146.498 243.608,146.466C243.08,146.456 242.556,146.362 242.029,146.354C241.709,146.349 241.229,146.291 240.697,146.238C240.174,146.185 239.6,146.139 239.114,146.015C238.784,145.931 238.507,145.98 238.526,145.837C238.798,143.781 239.565,136.971 246.231,131.173C253.143,125.161 260.558,124.513 268.908,125.972C271.431,126.413 273.864,127.61 275.933,129.089C277.127,129.942 278.829,131.081 279.479,132.528C279.924,133.519 280.04,134.6 280.179,135.659C280.458,137.791 280.436,137.778 280.578,139.939Z" style="fill:url(#_Linear3);"/>
    </g>
    <g transform="matrix(1,0,0,1,0,-105.5)">
        <path d="M52.53,125.084C47.714,125.031 43.688,127.019 42.85,131.429L51.581,131.429L49.994,139.367L41.262,139.367L35.904,166.223L25.585,166.223L30.943,139.367L0.112,139.367L1.7,131.429L32.531,131.429C33.633,126.667 35.816,123.006 39.079,120.449C42.343,117.891 49.892,116.558 54.226,116.639L52.53,125.084Z" style="fill-rule:nonzero;"/>
    </g>
    <g transform="matrix(1,0,0,1,0,-105.5)">
        <path d="M59.938,116.612C64.657,116.612 68.273,117.759 70.786,120.052C73.3,122.345 74.557,125.498 74.557,129.511C74.557,130.834 74.425,132.223 74.16,133.678L70.206,153.787C70.118,154.14 70.074,154.625 70.074,155.243C70.074,157.492 71.242,158.616 73.579,158.616C74.594,158.616 75.63,158.396 76.688,157.955L75.564,165.959C73.8,166.532 71.948,166.819 70.007,166.819C66.788,166.819 64.23,165.959 62.334,164.239C60.438,162.519 59.49,160.138 59.49,157.095C59.49,156.257 59.6,155.221 59.821,153.986L63.907,133.017C64.128,131.782 64.238,130.79 64.238,130.04C64.238,126.556 61.802,125.056 58.406,125.056L59.938,116.612Z" style="fill-rule:nonzero;"/>
    </g>
    <g transform="matrix(1,0,0,1,0,-105.5)">
        <path d="M120.912,158.55C122.058,158.55 123.029,158.374 123.822,158.021L122.764,165.892C121,166.466 119.148,166.752 117.208,166.752C114.606,166.752 112.456,166.223 110.758,165.165C109.06,164.106 107.925,162.651 107.352,160.799C105.72,162.783 103.769,164.272 101.497,165.264C99.226,166.256 96.812,166.752 94.254,166.752C90.374,166.752 87.276,165.694 84.96,163.577C82.645,161.461 81.488,158.484 81.488,154.647C81.488,153.192 81.642,151.759 81.951,150.348L85.853,130.635L96.173,130.635L92.402,149.686C92.226,150.524 92.138,151.384 92.138,152.266C92.138,155.97 94.122,157.822 98.091,157.822C100.693,157.822 102.842,157.062 104.54,155.54C106.238,154.019 107.396,151.737 108.013,148.694L111.651,130.635L121.97,130.635L117.34,153.853C117.252,154.471 117.208,154.912 117.208,155.176C117.208,157.425 118.442,158.55 120.912,158.55Z" style="fill-rule:nonzero;"/>
    </g>
    <g transform="matrix(1,0,0,1,0,-105.5)">
        <path d="M134.935,130.636L145.188,130.636L138.111,166.223L127.858,166.223L134.935,130.636ZM141.815,125.674C140.051,125.674 138.607,125.156 137.482,124.12C136.358,123.084 135.795,121.816 135.795,120.316C135.795,118.552 136.424,117.086 137.681,115.918C138.937,114.749 140.58,114.165 142.609,114.165C144.417,114.165 145.883,114.661 147.007,115.653C148.132,116.645 148.694,117.869 148.694,119.324C148.694,121.22 148.055,122.753 146.776,123.921C145.497,125.09 143.843,125.674 141.815,125.674Z" style="fill-rule:nonzero;"/>
    </g>
    <g transform="matrix(1,0,0,1,0,-105.5)">
        <path d="M214.543,158.531L212.865,166.752C202.563,166.648 187.509,166.752 186.134,166.752C183.62,166.752 181.537,166.245 179.883,165.231C178.229,164.217 177.094,162.761 176.476,160.865C174.977,162.761 173.169,164.217 171.052,165.231C168.935,166.245 166.554,166.752 163.908,166.752C161.13,166.752 158.572,166.113 156.235,164.834C153.898,163.555 152.035,161.714 150.646,159.311C149.256,156.907 148.562,154.074 148.562,150.811C148.562,146.886 149.433,143.347 151.175,140.194C152.917,137.041 155.287,134.571 158.286,132.785C161.284,130.999 164.592,130.106 168.208,130.106C170.854,130.106 173.169,130.547 175.153,131.429C177.138,132.311 178.703,133.656 179.85,135.464L183.356,117.141L193.675,117.141L186.399,153.721C186.266,154.25 186.2,154.757 186.2,155.243C186.2,156.345 186.52,157.172 187.159,157.723C187.799,158.274 188.692,158.55 189.838,158.55C190.625,158.55 204.856,158.482 214.543,158.531ZM167.083,158.219C169.112,158.219 170.92,157.723 172.507,156.731C174.095,155.739 175.33,154.361 176.212,152.597C177.094,150.833 177.535,148.804 177.535,146.511C177.535,144.086 176.818,142.167 175.385,140.756C173.952,139.345 171.956,138.639 169.398,138.639C167.37,138.639 165.562,139.136 163.974,140.128C162.387,141.12 161.152,142.498 160.27,144.262C159.388,146.026 158.947,148.055 158.947,150.348C158.947,152.773 159.664,154.691 161.097,156.103C162.53,157.514 164.526,158.219 167.083,158.219Z" style="fill-rule:nonzero;"/>
    </g>
    <defs>
        <linearGradient id="_Linear1" x1="0" y1="0" x2="1" y2="0" gradientUnits="userSpaceOnUse" gradientTransform="matrix(19.729,-17.424,17.424,19.729,255.963,157.916)"><stop offset="0" style="stop-color:rgb(99,124,217);stop-opacity:1"/><stop offset="1" style="stop-color:rgb(42,40,162);stop-opacity:1"/></linearGradient>
        <linearGradient id="_Linear2" x1="0" y1="0" x2="1" y2="0" gradientUnits="userSpaceOnUse" gradientTransform="matrix(30.157,7.446,-7.446,30.157,237.461,125.535)"><stop offset="0" style="stop-color:rgb(160,124,223);stop-opacity:1"/><stop offset="1" style="stop-color:rgb(44,42,164);stop-opacity:1"/></linearGradient>
        <linearGradient id="_Linear3" x1="0" y1="0" x2="1" y2="0" gradientUnits="userSpaceOnUse" gradientTransform="matrix(28.135,0,0,28.135,248.225,136.009)"><stop offset="0" style="stop-color:rgb(160,124,223);stop-opacity:1"/><stop offset="1" style="stop-color:rgb(44,42,164);stop-opacity:1"/></linearGradient>
    </defs>
</svg>
