<?xml version="1.0" encoding="UTF-8" standalone="no"?>
<!DOCTYPE svg PUBLIC "-//W3C//DTD SVG 1.1//EN" "http://www.w3.org/Graphics/SVG/1.1/DTD/svg11.dtd">
<svg width="100%" height="100%" viewBox="0 0 281 70" version="1.1" xmlns="http://www.w3.org/2000/svg" xmlns:xlink="http://www.w3.org/1999/xlink" xml:space="preserve" xmlns:serif="http://www.serif.com/" style="fill-rule:evenodd;clip-rule:evenodd;stroke-linejoin:round;stroke-miterlimit:2;">
    <g transform="matrix(1,0,0,1,0,-105.5)">
        <path d="M280.908,139.413C280.864,139.298 280.829,139.214 280.761,139.136C278.169,136.177 274.612,134.085 270.584,133.352C270.489,133.335 270.394,133.319 270.298,133.303C269.818,133.224 269.331,133.164 268.838,133.124C268.361,133.085 267.878,133.066 267.391,133.066C264.059,133.066 260.939,133.985 258.273,135.584C256.664,136.549 255.22,137.761 253.994,139.168C255.815,139.055 258.014,140.474 258.457,142.379C259.199,145.576 257.954,149.28 253.711,151.51C250.729,153.077 246.525,153.467 243.791,153.467C240.616,153.467 235.965,152.447 232.924,151.224C229.576,149.879 226.699,148.08 223.707,145.392C225.85,157.901 236.052,167.673 248.77,169.166C249.866,169.295 250.982,169.362 252.112,169.364L252.165,169.364C255.539,169.358 258.779,168.771 261.789,167.7C266.351,166.075 270.386,163.334 273.565,159.807C278.177,154.69 280.985,147.915 280.985,140.49C280.985,140.256 280.978,140.04 280.973,139.807C280.969,139.668 280.95,139.52 280.908,139.413Z" style="fill:url(#_Linear1);"/>
    </g>
    <g transform="matrix(1,0,0,1,0,-105.5)">
        <path d="M247.026,168.907C247.601,169.011 256.533,167.243 260.489,158.817C264.721,149.8 259.119,140.832 257.381,140.492C257.762,140.889 258.812,142.072 258.681,144.302C258.558,146.384 257.709,149.434 253.71,151.51C250.721,153.063 246.524,153.466 243.79,153.466C240.615,153.466 235.964,152.447 232.923,151.224C229.575,149.879 226.698,148.08 223.706,145.392C225.75,157.324 235.127,166.766 247.026,168.907Z" style="fill:rgb(44,42,164);fill-opacity:0.53;"/>
    </g>
    <g transform="matrix(1,0,0,1,0,-105.5)">
        <path d="M247.614,146.184C247.331,145.962 247.075,145.705 246.853,145.421C246.714,145.267 246.597,145.094 246.505,144.906C245.694,143.503 245.776,141.178 246.084,139.652C248.082,129.758 257.659,127.163 260.698,126.442C267.401,124.853 275.513,127.149 279.897,132.624C279.113,129.853 277.895,127.195 276.304,124.794C273.673,120.824 270.004,117.338 265.832,115.02C258.928,111.183 250.291,110.647 242.851,113.142C239.544,114.251 236.452,115.978 233.764,118.199C231.074,120.423 228.794,123.138 227.064,126.17C225.448,129 224.296,132.1 223.705,135.305C223.594,135.907 223.518,136.671 223.794,137.218C224.134,137.891 224.937,138.65 225.746,139.344C231.734,144.477 239.704,147.013 247.614,146.184Z" style="fill:url(#_Linear2);"/>
    </g>
    <g transform="matrix(1,0,0,1,0,-105.5)">
        <path d="M280.985,139.945C276.099,134.081 267.176,131.827 260.115,134.762C257.729,135.754 255.74,137.346 253.996,139.242C252.363,141.285 251.78,144.524 249.25,145.754C247.748,146.484 246.058,146.43 244.434,146.399C243.912,146.389 243.394,146.296 242.872,146.288C242.556,146.283 242.081,146.225 241.556,146.173C241.038,146.121 240.471,146.075 239.99,145.953C239.664,145.87 239.39,145.918 239.409,145.777C239.678,143.744 240.436,137.01 247.027,131.278C253.86,125.334 261.191,124.693 269.448,126.136C271.942,126.573 274.347,127.756 276.393,129.218C277.573,130.061 279.256,131.188 279.899,132.618C280.339,133.598 280.454,134.666 280.591,135.714C280.867,137.822 280.846,137.809 280.985,139.945Z" style="fill:url(#_Linear3);"/>
    </g>
    <g transform="matrix(1,0,0,1,0,-105.5)">
        <path d="M51.936,125.258C47.174,125.206 43.194,127.172 42.365,131.532L50.998,131.532L49.429,139.38L40.796,139.38L35.498,165.932L25.296,165.932L30.593,139.38L0.111,139.38L1.681,131.532L32.163,131.532C33.253,126.823 35.411,123.204 38.638,120.675C41.864,118.147 49.328,116.829 53.613,116.909L51.936,125.258Z" style="fill:white;fill-rule:nonzero;"/>
    </g>
    <g transform="matrix(1,0,0,1,0,-105.5)">
        <path d="M59.261,116.882C63.926,116.882 67.501,118.016 69.986,120.283C72.471,122.55 73.714,125.668 73.714,129.635C73.714,130.943 73.583,132.317 73.322,133.755L69.412,153.637C69.325,153.986 69.281,154.466 69.281,155.076C69.281,157.3 70.437,158.411 72.748,158.411C73.75,158.411 74.775,158.193 75.821,157.757L74.71,165.671C72.966,166.238 71.134,166.521 69.216,166.521C66.033,166.521 63.504,165.671 61.629,163.97C59.755,162.27 58.817,159.916 58.817,156.907C58.817,156.079 58.926,155.054 59.144,153.833L63.185,133.101C63.403,131.881 63.512,130.9 63.512,130.158C63.512,126.714 61.103,125.231 57.746,125.231L59.261,116.882Z" style="fill:white;fill-rule:nonzero;"/>
    </g>
    <g transform="matrix(1,0,0,1,0,-105.5)">
        <path d="M119.545,158.346C120.679,158.346 121.638,158.172 122.423,157.823L121.376,165.605C119.632,166.172 117.801,166.456 115.883,166.456C113.31,166.456 111.185,165.932 109.506,164.886C107.827,163.84 106.705,162.401 106.138,160.57C104.525,162.532 102.595,164.003 100.35,164.984C98.105,165.965 95.718,166.456 93.189,166.456C89.352,166.456 86.289,165.409 84,163.316C81.711,161.224 80.566,158.281 80.566,154.487C80.566,153.049 80.719,151.632 81.024,150.236L84.883,130.747L95.085,130.747L91.357,149.582C91.183,150.411 91.096,151.261 91.096,152.133C91.096,155.795 93.058,157.627 96.982,157.627C99.554,157.627 101.68,156.874 103.358,155.37C105.037,153.866 106.181,151.61 106.792,148.601L110.389,130.747L120.591,130.747L116.013,153.703C115.926,154.313 115.883,154.749 115.883,155.011C115.883,157.234 117.103,158.346 119.545,158.346Z" style="fill:white;fill-rule:nonzero;"/>
    </g>
    <g transform="matrix(1,0,0,1,0,-105.5)">
        <path d="M133.41,130.747L143.547,130.747L136.549,165.932L126.412,165.932L133.41,130.747ZM140.211,125.842C138.467,125.842 137.04,125.33 135.928,124.305C134.816,123.281 134.26,122.027 134.26,120.545C134.26,118.801 134.881,117.351 136.124,116.196C137.367,115.04 138.991,114.462 140.996,114.462C142.784,114.462 144.234,114.953 145.345,115.934C146.457,116.915 147.013,118.125 147.013,119.564C147.013,121.438 146.381,122.954 145.116,124.109C143.852,125.264 142.217,125.842 140.211,125.842Z" style="fill:white;fill-rule:nonzero;"/>
    </g>
    <g transform="matrix(1,0,0,1,0,-105.5)">
        <path d="M212.117,158.327L210.459,166.456C200.273,166.352 185.389,166.456 184.03,166.456C181.544,166.456 179.484,165.954 177.849,164.951C176.214,163.949 175.092,162.51 174.481,160.635C172.999,162.51 171.211,163.949 169.118,164.951C167.026,165.954 164.671,166.456 162.055,166.456C159.308,166.456 156.78,165.823 154.469,164.559C152.158,163.295 150.316,161.474 148.942,159.098C147.569,156.722 146.882,153.921 146.882,150.694C146.882,146.814 147.743,143.315 149.466,140.197C151.188,137.08 153.531,134.638 156.496,132.873C159.461,131.107 162.731,130.224 166.306,130.224C168.922,130.224 171.211,130.66 173.173,131.532C175.135,132.404 176.683,133.734 177.817,135.521L181.283,117.405L191.485,117.405L184.291,153.572C184.16,154.095 184.095,154.596 184.095,155.076C184.095,156.166 184.411,156.983 185.043,157.528C185.676,158.073 186.558,158.346 187.692,158.346C188.47,158.346 202.54,158.279 212.117,158.327ZM165.194,158.019C167.2,158.019 168.987,157.529 170.557,156.547C172.127,155.566 173.347,154.204 174.22,152.46C175.092,150.716 175.527,148.71 175.527,146.443C175.527,144.045 174.819,142.149 173.402,140.753C171.985,139.358 170.012,138.661 167.483,138.661C165.478,138.661 163.69,139.151 162.12,140.132C160.551,141.113 159.33,142.476 158.458,144.22C157.586,145.964 157.15,147.969 157.15,150.236C157.15,152.634 157.859,154.531 159.276,155.926C160.693,157.321 162.665,158.019 165.194,158.019Z" style="fill:white;fill-rule:nonzero;"/>
    </g>
    <defs>
        <linearGradient id="_Linear1" x1="0" y1="0" x2="1" y2="0" gradientUnits="userSpaceOnUse" gradientTransform="matrix(19.506,-17.227,17.227,19.506,256.648,157.719)"><stop offset="0" style="stop-color:rgb(99,124,217);stop-opacity:1"/><stop offset="1" style="stop-color:rgb(42,40,162);stop-opacity:1"/></linearGradient>
        <linearGradient id="_Linear2" x1="0" y1="0" x2="1" y2="0" gradientUnits="userSpaceOnUse" gradientTransform="matrix(29.816,7.362,-7.362,29.816,238.356,125.704)"><stop offset="0" style="stop-color:rgb(160,124,223);stop-opacity:1"/><stop offset="1" style="stop-color:rgb(44,42,164);stop-opacity:1"/></linearGradient>
        <linearGradient id="_Linear3" x1="0" y1="0" x2="1" y2="0" gradientUnits="userSpaceOnUse" gradientTransform="matrix(27.817,0,0,27.817,248.998,136.06)"><stop offset="0" style="stop-color:rgb(160,124,223);stop-opacity:1"/><stop offset="1" style="stop-color:rgb(44,42,164);stop-opacity:1"/></linearGradient>
    </defs>
</svg>
